<?xml version="1.0" encoding="utf-8"?>
<!-- Generator: Adobe Illustrator 28.0.0, SVG Export Plug-In . SVG Version: 6.00 Build 0)  -->
<svg version="1.1" id="Слой_1" xmlns="http://www.w3.org/2000/svg" xmlns:xlink="http://www.w3.org/1999/xlink" x="0px" y="0px"
	 viewBox="0 0 500 500" style="enable-background:new 0 0 500 500;" xml:space="preserve">
<style type="text/css">
	.st0{fill:none;stroke:#9CA3AF;stroke-width:46;stroke-miterlimit:10;}
	.st1{fill:none;stroke:#9CA3AF;stroke-width:28;stroke-miterlimit:10;}
</style>
<image style="overflow:visible;" width="25" height="21" xlink:href="459DA84D.jpg"  transform="matrix(27.7619 0 0 27.7619 -101.0476 -15)">
</image>
<path class="st0" d="M214.2,394.5L214.2,394.5c-99,0-179.2-80.3-179.2-179.2l0,0C35,116.3,115.3,36,214.2,36l0,0
	c99,0,179.2,80.3,179.2,179.2l0,0C393.5,314.2,313.2,394.5,214.2,394.5z"/>
<path class="st1" d="M441.2,430.7l-93.5-93.5c-2.3-2.3-6.2-2.3-8.5,0l0,0c-2.3,2.3-2.3,6.2,0,8.5l93.5,93.5c2.3,2.3,6.2,2.3,8.5,0
	l0,0C443.6,436.9,443.6,433.1,441.2,430.7z"/>
</svg>
