<?xml version="1.0" encoding="utf-8"?>
<!-- Generator: Adobe Illustrator 28.0.0, SVG Export Plug-In . SVG Version: 6.00 Build 0)  -->
<svg version="1.1" id="Слой_1" xmlns="http://www.w3.org/2000/svg" xmlns:xlink="http://www.w3.org/1999/xlink" x="0px" y="0px"
	 viewBox="0 0 361.2 361.2" style="enable-background:new 0 0 361.2 361.2;" xml:space="preserve">
<style type="text/css">
	.st0{fill:#9CA3AF;}
</style>
<path class="st0" d="M3.2,344.1L343.7,3.6c4-4,10.5-4,14.5,0l0,0c4,4,4,10.5,0,14.5L17.7,358.6c-4,4-10.5,4-14.5,0l0,0
	C-0.8,354.6-0.8,348.1,3.2,344.1z"/>
<path class="st0" d="M358,343.9L17.5,3.4c-4-4-10.5-4-14.5,0l0,0c-4,4-4,10.5,0,14.5l340.5,340.5c4,4,10.5,4,14.5,0l0,0
	C362,354.4,362,347.9,358,343.9z"/>
</svg>
